<svg width="35.000000" height="29.000000" viewBox="0 0 35 29" fill="none" xmlns="http://www.w3.org/2000/svg" xmlns:xlink="http://www.w3.org/1999/xlink">
	<desc>
			Created with Pixso.
	</desc>
	<defs/>
	<path id="Vector" d="M3.5 1.38C1.56 1.38 0 2.62 0 4.14L0 26.23C0 27.75 1.56 29 3.5 29L31.5 29C33.43 29 35 27.75 35 26.23L35 4.14C35 2.62 33.43 1.38 31.5 1.38L3.5 1.38Z" fill="#30497B" fill-opacity="1.000000" fill-rule="nonzero"/>
	<path id="Vector" d="M3.5 0C1.56 0 0 1.23 0 2.76L0 24.85C0 26.38 1.56 27.61 3.5 27.61L31.5 27.61C33.43 27.61 35 26.38 35 24.85L35 2.76C35 1.23 33.43 0 31.5 0L3.5 0Z" fill="#3B5998" fill-opacity="1.000000" fill-rule="nonzero"/>
	<path id="Vector" d="M26.25 5.52C22.38 5.52 19.25 8 19.25 11.04L19.25 15.19L15.75 15.19L15.75 19.33L19.25 19.33L19.25 29L24.5 29L24.5 19.33L28.79 19.33L29.75 15.19L24.5 15.19L24.5 11.04C24.5 10.21 25.28 9.66 26.25 9.66L29.75 9.66L29.75 5.52L26.25 5.52Z" fill="#30497B" fill-opacity="1.000000" fill-rule="nonzero"/>
	<path id="Vector" d="M26.25 4.14C22.38 4.14 19.25 6.61 19.25 9.66L19.25 13.8L15.75 13.8L15.75 17.95L19.25 17.95L19.25 27.61L24.5 27.61L24.5 17.95L28.79 17.95L29.75 13.8L24.5 13.8L24.5 9.66C24.5 8.9 25.28 8.28 26.25 8.28L29.75 8.28L29.75 4.14L26.25 4.14Z" fill="#ECF0F1" fill-opacity="1.000000" fill-rule="nonzero"/>
	<path id="Vector" d="M19.25 27.61L24.5 27.61L24.5 29L19.25 29L19.25 27.61Z" fill="#BDC3C7" fill-opacity="1.000000" fill-rule="nonzero"/>
</svg>
