<svg width="41.500000" height="29.000000" viewBox="0 0 41.5 29" fill="none" xmlns="http://www.w3.org/2000/svg" xmlns:xlink="http://www.w3.org/1999/xlink">
	<desc>
			Created with Pixso.
	</desc>
	<defs/>
	<path id="Vector" d="M4.15 1.38C1.85 1.38 0 2.62 0 4.14L0 26.23C0 27.75 1.85 29 4.15 29L37.34 29C39.64 29 41.5 27.75 41.5 26.23L41.5 4.14C41.5 2.62 39.64 1.38 37.34 1.38L4.15 1.38Z" fill="#1499CA" fill-opacity="1.000000" fill-rule="nonzero"/>
	<path id="Vector" d="M4.15 0C1.85 0 0 1.23 0 2.76L0 24.85C0 26.38 1.85 27.61 4.15 27.61L37.34 27.61C39.64 27.61 41.5 26.38 41.5 24.85L41.5 2.76C41.5 1.23 39.64 0 37.34 0L4.15 0Z" fill="#1AB2E8" fill-opacity="1.000000" fill-rule="nonzero"/>
	<path id="Vector" d="M27.95 8.42C26.27 8.42 24.77 8.7 23.58 9.52C22.4 10.35 21.85 11.32 21.85 12.42C21.85 12.7 21.9 12.98 22 13.39C19.51 13.25 17.17 12.84 14.99 12.15C12.82 11.32 10.93 10.35 9.41 9.11C8.86 9.66 8.58 10.35 8.58 11.18C8.58 11.87 8.85 12.56 9.34 13.11C9.83 13.67 10.47 14.08 11.3 14.5C10.32 14.5 9.44 14.36 8.58 13.94L8.58 14.08C8.58 15.05 9.02 15.88 9.94 16.7C10.87 17.4 12.07 17.81 13.48 18.09C12.95 18.09 12.36 18.22 11.82 18.22C11.47 18.22 11.11 18.22 10.69 18.09C11.08 18.91 11.84 19.6 12.88 20.16C13.92 20.71 15.1 20.85 16.42 20.99C14.21 22.09 11.63 22.64 8.81 22.64L7.38 22.64C10.2 23.75 13.32 24.44 16.72 24.44C18.88 24.44 20.93 24.16 22.83 23.75C24.72 23.33 26.31 22.64 27.65 21.95C29 21.12 30.15 20.29 31.12 19.33C32.1 18.22 32.83 17.26 33.3 16.15C33.78 15.05 34.06 13.94 34.06 12.84C34.06 12.7 34 12.42 33.98 12.29C35.18 11.73 36.23 11.18 37.08 10.35C35.9 10.63 34.7 10.77 33.53 10.9C34.85 10.35 35.78 9.66 36.25 8.69C35.04 9.11 33.77 9.52 32.4 9.66C31.19 8.83 29.71 8.42 27.95 8.42Z" fill="#1499CA" fill-opacity="1.000000" fill-rule="nonzero"/>
	<path id="Vector" d="M27.95 7.04C26.27 7.04 24.78 7.31 23.58 8.14C22.4 8.97 21.85 9.94 21.85 11.04C21.85 11.32 21.9 11.59 22 12.01C19.51 11.87 17.18 11.46 14.99 10.77C12.82 9.94 10.93 8.97 9.41 7.73C8.86 8.28 8.58 8.97 8.58 9.8C8.58 10.49 8.85 11.18 9.34 11.73C9.83 12.29 10.47 12.7 11.3 13.11C10.32 13.11 9.44 12.98 8.58 12.56L8.58 12.7C8.58 13.67 9.02 14.5 9.94 15.32C10.87 16.01 12.07 16.43 13.48 16.7C12.95 16.7 12.36 16.84 11.82 16.84C11.47 16.84 11.11 16.84 10.69 16.7C11.08 17.53 11.84 18.22 12.88 18.78C13.92 19.33 15.1 19.47 16.42 19.6C14.21 20.71 11.64 21.26 8.81 21.26L7.38 21.26C10.2 22.37 13.32 23.06 16.72 23.06C18.88 23.06 20.93 22.78 22.83 22.37C24.72 21.95 26.31 21.26 27.65 20.57C29 19.74 30.15 18.91 31.12 17.95C32.1 16.84 32.83 15.88 33.31 14.77C33.78 13.67 34.06 12.56 34.06 11.46C34.06 11.32 34 11.04 33.98 10.9C35.18 10.35 36.23 9.8 37.08 8.97C35.91 9.25 34.7 9.39 33.53 9.52C34.85 8.97 35.78 8.28 36.25 7.31C35.04 7.73 33.77 8.14 32.4 8.28C31.19 7.45 29.71 7.04 27.95 7.04Z" fill="#ECF0F1" fill-opacity="1.000000" fill-rule="nonzero"/>
</svg>
